<svg xmlns="http://www.w3.org/2000/svg">

    <symbol id="cross" viewBox="0 0 100 100">
        <path fill-rule="evenodd" clip-rule="evenodd" d="M93.4438 6.07187C91.4911 4.11927 88.3253 4.11927 86.3726 6.07187L49.952 42.4918L13.5314 6.07188C11.5788 4.11928 8.41293 4.11928 6.46029 6.07188L5.07012 7.46202C3.11748 9.41463 3.11748 12.5804 5.07012 14.533L41.4907 50.9529L5.07012 87.3728C3.11748 89.3254 3.11748 92.4912 5.07012 94.4438L6.46029 95.834C8.41293 97.7866 11.5788 97.7866 13.5314 95.834L49.952 59.4141L86.3726 95.834C88.3253 97.7866 91.4911 97.7866 93.4438 95.834L94.834 94.4438C96.7866 92.4912 96.7866 89.3254 94.8339 87.3728L58.4133 50.9529L94.834 14.533C96.7866 12.5804 96.7866 9.41462 94.8339 7.46202L93.4438 6.07187Z" fill="currentColor"/>
    </symbol>

    <symbol id="home" viewBox="0 0 50 50">
        <path fill="currentColor" d="M 25 1.0507812 C 24.7825 1.0507812 24.565859 1.1197656 24.380859 1.2597656 L 1.3808594 19.210938 C 0.95085938 19.550938 0.8709375 20.179141 1.2109375 20.619141 C 1.5509375 21.049141 2.1791406 21.129062 2.6191406 20.789062 L 4 19.710938 L 4 46 C 4 46.55 4.45 47 5 47 L 19 47 L 19 29 L 31 29 L 31 47 L 45 47 C 45.55 47 46 46.55 46 46 L 46 19.710938 L 47.380859 20.789062 C 47.570859 20.929063 47.78 21 48 21 C 48.3 21 48.589063 20.869141 48.789062 20.619141 C 49.129063 20.179141 49.049141 19.550938 48.619141 19.210938 L 25.619141 1.2597656 C 25.434141 1.1197656 25.2175 1.0507812 25 1.0507812 z M 35 5 L 35 6.0507812 L 41 10.730469 L 41 5 L 35 5 z"/>
    </symbol>

    <symbol id="enter" viewBox="0 0 100 100">
        <g clip-path="url(#clip0_267_2)">
            <path fill-rule="evenodd" clip-rule="evenodd" d="M1.73448 49.93C1.68598 48.0572 2.32907 46.1677 3.66375 44.7384L43.5771 1.99455C46.1529 -0.763866 50.329 -0.763872 52.9047 1.99455C55.4805 4.75296 55.4805 9.22524 52.9047 11.9837L23.3405 43.6445H85.8246V18.2831C85.8246 15.5217 88.0632 13.2831 90.8246 13.2831H95C97.7615 13.2831 100 15.5217 100 18.2831V51.9276C100 51.9354 100 51.9432 100 51.9509V53.8252C100 56.5866 97.7614 58.8252 95 58.8252H25.7855L52.905 87.8678C55.4807 90.6262 55.4807 95.0985 52.905 97.8569C50.3292 100.615 46.1531 100.615 43.5773 97.8569L3.66397 55.1131C2.3313 53.6859 1.68813 51.8 1.73448 49.93Z" fill="currentColor"/>
        </g>
    </symbol>

    <symbol id="edit" viewBox="0 0 100 100">
        <rect x="70.298" y="11.9274" width="25" height="85.5334" transform="rotate(45 70.298 11.9274)" fill="#D9D9D9"/>
        <path d="M79.2 2.94974C81.9337 0.216075 86.3659 0.216077 89.0995 2.94975L96.8777 10.7279C99.6114 13.4616 99.6114 17.8937 96.8777 20.6274L91.6777 25.8274L74 8.14976L79.2 2.94974Z" fill="#D9D9D9"/>
        <path d="M0.112095 99.5076L7.38224 74.7063L24.8969 92.1813L0.112095 99.5076Z" fill="#D9D9D9"/>
    </symbol>

</svg>